<svg id="Layer_1" data-name="Layer 1" xmlns="http://www.w3.org/2000/svg" viewBox="0 0 330.47 275.93"><defs><style>.cls-1{fill:#231f20;}.cls-2{fill:#de4f76;}.cls-3{fill:#e7c897;}.cls-4{fill:#61a60e;}.cls-5{fill:#ae619d;}.cls-6{fill:#e3cfe2;}.cls-7{fill:#dac1dd;}</style></defs><title>ASI_Logo_Stacked_Color</title><path class="cls-1" d="M28.82,182.38a.83.83,0,0,0-.79-.54h-1a.81.81,0,0,0-.78.54L14.92,211.32A.69.69,0,0,0,15,212a.68.68,0,0,0,.59.27h.75a.82.82,0,0,0,.79-.55l2.85-7.3H35.14L38,211.7a.83.83,0,0,0,.79.54h.75a.66.66,0,0,0,.59-.27.67.67,0,0,0,0-.66Zm5.51,19.92H20.76l6.78-17.43Z" transform="translate(-14.76 -15.04)"/><path class="cls-1" d="M66,211.9a1,1,0,0,0,.77.34h.91a.61.61,0,0,0,.48-1.06l-10.3-11.66a9,9,0,0,0-2.09-17.68H46.39a.71.71,0,0,0-.75.75v28.9a.71.71,0,0,0,.75.75h.71a.71.71,0,0,0,.74-.75V199.77h7.44Zm-3.46-21.1a6.83,6.83,0,0,1-6.77,6.88h-7.9V183.93h7.9A6.83,6.83,0,0,1,62.51,190.8Z" transform="translate(-14.76 -15.04)"/><path class="cls-1" d="M86,212.69a14.58,14.58,0,0,0,13.79-9,.63.63,0,0,0,0-.6.74.74,0,0,0-.62-.29h-.82a.84.84,0,0,0-.8.52A12.34,12.34,0,0,1,86,210.58a13.54,13.54,0,0,1,0-27.08,12.37,12.37,0,0,1,11.53,7.26.81.81,0,0,0,.79.5h.79a.67.67,0,0,0,.59-.27.69.69,0,0,0,0-.65,14.72,14.72,0,0,0-13.75-9,15.65,15.65,0,1,0,0,31.3Z" transform="translate(-14.76 -15.04)"/><path class="cls-1" d="M106.66,212.24h.71a.71.71,0,0,0,.74-.75V197.66h15.37v13.83a.71.71,0,0,0,.75.75h.71a.71.71,0,0,0,.74-.75v-28.9a.71.71,0,0,0-.74-.75h-.71a.71.71,0,0,0-.75.75v13H108.11v-13a.71.71,0,0,0-.74-.75h-.71a.71.71,0,0,0-.75.75v28.9A.71.71,0,0,0,106.66,212.24Z" transform="translate(-14.76 -15.04)"/><path class="cls-1" d="M120,166.8h.71a.75.75,0,0,1,.75.75v28.91a.74.74,0,0,1-.74.74H120a.75.75,0,0,1-.75-.75v-28.9A.75.75,0,0,1,120,166.8Z"/><path class="cls-1" d="M160.66,181.84H142.52a.71.71,0,0,0-.74.75v.59a.71.71,0,0,0,.74.75h8v27.56a.7.7,0,0,0,.74.75H152a.71.71,0,0,0,.74-.75V183.93h8a.71.71,0,0,0,.75-.75v-.59A.71.71,0,0,0,160.66,181.84Z" transform="translate(-14.76 -15.04)"/><path class="cls-1" d="M167.69,212.24H183a.71.71,0,0,0,.75-.75v-.59a.71.71,0,0,0-.75-.75H169.14V198h12.58a.71.71,0,0,0,.74-.75v-.6a.7.7,0,0,0-.74-.74H169.14V183.93h13.64a.71.71,0,0,0,.75-.75v-.59a.71.71,0,0,0-.75-.75H167.69a.71.71,0,0,0-.75.75v28.9A.71.71,0,0,0,167.69,212.24Z" transform="translate(-14.76 -15.04)"/><path class="cls-1" d="M217.08,202.81h-.82a.85.85,0,0,0-.8.52,12.35,12.35,0,0,1-11.52,7.25,13.54,13.54,0,0,1,0-27.08,12.34,12.34,0,0,1,11.52,7.26.84.84,0,0,0,.8.5h.79a.67.67,0,0,0,.59-.27.69.69,0,0,0,.05-.65,14.72,14.72,0,0,0-13.75-9,15.65,15.65,0,1,0,0,31.3,14.61,14.61,0,0,0,13.8-9,.63.63,0,0,0-.05-.6A.71.71,0,0,0,217.08,202.81Z" transform="translate(-14.76 -15.04)"/><path class="cls-1" d="M239.1,181.84H221a.7.7,0,0,0-.74.75v.59a.7.7,0,0,0,.74.75h8v27.56a.71.71,0,0,0,.74.75h.72a.71.71,0,0,0,.74-.75V183.93h8a.71.71,0,0,0,.74-.75v-.59A.71.71,0,0,0,239.1,181.84Z" transform="translate(-14.76 -15.04)"/><path class="cls-1" d="M265.15,203.59v-21a.71.71,0,0,0-.75-.75h-.71a.71.71,0,0,0-.74.75v21c0,4.31-3,7-7.9,7s-7.9-2.68-7.9-7v-21a.71.71,0,0,0-.74-.75h-.71a.71.71,0,0,0-.75.75v21c0,5.53,4,9.1,10.1,9.1S265.15,209.12,265.15,203.59Z" transform="translate(-14.76 -15.04)"/><path class="cls-1" d="M275.31,211.49V199.77h7.44l10.69,12.13a1,1,0,0,0,.77.34h.91a.65.65,0,0,0,.63-.35.64.64,0,0,0-.16-.71L285.3,199.52a9,9,0,0,0-2.09-17.68h-9.35a.71.71,0,0,0-.75.75v28.9a.71.71,0,0,0,.75.75h.71A.71.71,0,0,0,275.31,211.49Zm7.9-13.81h-7.9V183.93h7.9a6.88,6.88,0,0,1,0,13.75Z" transform="translate(-14.76 -15.04)"/><path class="cls-1" d="M311.66,182.38a.82.82,0,0,0-.78-.54h-1a.82.82,0,0,0-.79.54l-11.34,28.94a.67.67,0,0,0,0,.65.68.68,0,0,0,.59.27h.76a.83.83,0,0,0,.79-.55l2.84-7.3H318l2.85,7.31a.82.82,0,0,0,.79.54h.75A.68.68,0,0,0,323,212a.7.7,0,0,0,.05-.66Zm5.51,19.92H303.6l6.79-17.43Z" transform="translate(-14.76 -15.04)"/><path class="cls-1" d="M344.39,210.15h-13.7V182.59a.71.71,0,0,0-.75-.75h-.71a.71.71,0,0,0-.74.75v28.9a.71.71,0,0,0,.74.75h15.16a.71.71,0,0,0,.75-.75v-.59A.71.71,0,0,0,344.39,210.15Z" transform="translate(-14.76 -15.04)"/><path class="cls-1" d="M60.56,242.23l-1.18-.45c-3.89-1.45-7.24-2.71-7.24-6.58,0-3.31,2.84-5.62,6.92-5.62,3.86,0,6.82,2.36,7,5.61a.71.71,0,0,0,.74.71h.73a.74.74,0,0,0,.54-.21.78.78,0,0,0,.19-.57c-.23-4.36-4.19-7.65-9.22-7.65-5.28,0-9.12,3.25-9.12,7.73,0,5.34,4.38,7,8.63,8.51l1,.39c4,1.47,7.39,2.75,7.39,6.71,0,3.44-3,5.85-7.32,5.85-5,0-8.1-2.28-8.32-6.09a.72.72,0,0,0-.75-.73h-.72a.69.69,0,0,0-.73.77c.23,5,4.36,8.16,10.52,8.16,5.52,0,9.52-3.35,9.52-8C69.2,245.54,64.81,243.86,60.56,242.23Z" transform="translate(-14.76 -15.04)"/><path class="cls-1" d="M92.29,227.92H91.5a.88.88,0,0,0-.78.42L81.6,242l-9.11-13.69a.9.9,0,0,0-.78-.42h-.79a.67.67,0,0,0-.62.32.65.65,0,0,0,.08.69L80.5,244.12v13.45a.69.69,0,0,0,.74.74H82a.69.69,0,0,0,.74-.74V244.14l10.13-15.21a.66.66,0,0,0,.09-.69A.67.67,0,0,0,92.29,227.92Z" transform="translate(-14.76 -15.04)"/><path class="cls-1" d="M105.44,242.23l-1.18-.45c-3.89-1.45-7.25-2.7-7.25-6.58,0-3.31,2.85-5.62,6.92-5.62,3.87,0,6.82,2.36,7,5.61a.72.72,0,0,0,.75.71h.72a.79.79,0,0,0,.55-.21.74.74,0,0,0,.18-.57c-.23-4.36-4.19-7.65-9.22-7.65-5.28,0-9.11,3.25-9.11,7.73,0,5.34,4.38,7,8.62,8.51l1,.39c4,1.47,7.38,2.75,7.38,6.71,0,3.44-3,5.85-7.31,5.85-5,0-8.11-2.28-8.33-6.09a.72.72,0,0,0-.74-.73h-.73a.74.74,0,0,0-.54.21.77.77,0,0,0-.19.56c.23,5,4.36,8.16,10.53,8.16,5.51,0,9.51-3.35,9.51-8C114.07,245.54,109.68,243.86,105.44,242.23Z" transform="translate(-14.76 -15.04)"/><path class="cls-1" d="M134.59,227.92H116.45a.7.7,0,0,0-.74.74v.6a.7.7,0,0,0,.74.74h8v27.57a.69.69,0,0,0,.74.74h.71a.7.7,0,0,0,.74-.74V230h8a.69.69,0,0,0,.74-.74v-.6A.7.7,0,0,0,134.59,227.92Z" transform="translate(-14.76 -15.04)"/><path class="cls-1" d="M155.86,256.23H142V244h12.57a.71.71,0,0,0,.75-.74v-.6a.71.71,0,0,0-.75-.74H142V230h13.64a.7.7,0,0,0,.74-.74v-.6a.7.7,0,0,0-.74-.74H140.56a.71.71,0,0,0-.75.74v28.91a.7.7,0,0,0,.75.74h15.3a.7.7,0,0,0,.74-.74V257A.71.71,0,0,0,155.86,256.23Z" transform="translate(-14.76 -15.04)"/><path class="cls-1" d="M188.46,227.92h-1.21a.82.82,0,0,0-.79.49L175.57,250l-10.9-21.61a.81.81,0,0,0-.78-.5h-1.22a.69.69,0,0,0-.74.74v28.91a.69.69,0,0,0,.74.74h.71a.69.69,0,0,0,.74-.74V232.05l10.25,20.34a.82.82,0,0,0,.79.5H176a.81.81,0,0,0,.78-.49L187,232.05v25.52a.69.69,0,0,0,.74.74h.71a.7.7,0,0,0,.75-.74V228.66A.7.7,0,0,0,188.46,227.92Z" transform="translate(-14.76 -15.04)"/><path class="cls-1" d="M205.94,242.23l-1.18-.45c-3.89-1.45-7.24-2.71-7.24-6.58,0-3.31,2.84-5.62,6.92-5.62,3.86,0,6.81,2.36,7,5.61a.71.71,0,0,0,.74.71h.73a.74.74,0,0,0,.54-.21.78.78,0,0,0,.19-.57c-.23-4.36-4.19-7.65-9.22-7.65-5.28,0-9.12,3.25-9.12,7.73,0,5.34,4.38,7,8.62,8.51l1.05.39c4,1.47,7.39,2.75,7.39,6.71,0,3.44-3,5.85-7.32,5.85-5,0-8.1-2.28-8.32-6.09a.73.73,0,0,0-.75-.73h-.72a.69.69,0,0,0-.73.77c.23,5,4.36,8.16,10.52,8.16,5.52,0,9.52-3.35,9.52-8C214.58,245.54,210.19,243.86,205.94,242.23Z" transform="translate(-14.76 -15.04)"/><path class="cls-1" d="M220.65,254.7h-1a.69.69,0,0,0-.74.74v3.27a.68.68,0,0,0,.63.73c-.07,1.58-.44,2-.83,2.3a.78.78,0,0,0-.36.67v.37a.65.65,0,0,0,.24.53.56.56,0,0,0,.33.1.66.66,0,0,0,.23,0c1.49-.58,2.24-2,2.24-4.24v-3.69A.69.69,0,0,0,220.65,254.7Z" transform="translate(-14.76 -15.04)"/><path class="cls-1" d="M226,212.88h.71a.74.74,0,0,1,.74.74v28.91a.74.74,0,0,1-.74.74H226a.74.74,0,0,1-.74-.74V213.63A.75.75,0,0,1,226,212.88Z"/><path class="cls-1" d="M268.24,227.92h-.71a.69.69,0,0,0-.74.74v25.11l-15.11-25.41a.84.84,0,0,0-.78-.44h-.66a.69.69,0,0,0-.74.74v28.91a.69.69,0,0,0,.74.74H251a.7.7,0,0,0,.75-.74V232.46l15.1,25.42a.87.87,0,0,0,.79.43h.65a.69.69,0,0,0,.74-.74V228.66A.69.69,0,0,0,268.24,227.92Z" transform="translate(-14.76 -15.04)"/><path class="cls-1" d="M303.46,248.89h-.82a.84.84,0,0,0-.8.52,12.34,12.34,0,0,1-11.52,7.25,13.54,13.54,0,0,1,0-27.08,12.36,12.36,0,0,1,11.53,7.25.8.8,0,0,0,.79.51h.8a.64.64,0,0,0,.63-.92,14.69,14.69,0,0,0-13.75-8.95,15.65,15.65,0,1,0,0,31.3,14.6,14.6,0,0,0,13.8-9,.63.63,0,0,0,0-.6A.73.73,0,0,0,303.46,248.89Z" transform="translate(-14.76 -15.04)"/><path class="cls-1" d="M293.21,239.66h1a.74.74,0,0,1,.74.74v2.13a.74.74,0,0,1-.74.74h-1a.75.75,0,0,1-.75-.75v-2.12A.74.74,0,0,1,293.21,239.66Z"/><rect class="cls-1" x="0.08" y="139.02" width="330.31" height="1.65"/><polygon class="cls-2" points="128.32 25.02 128.32 0.34 153.01 0.34 128.32 25.02"/><polygon class="cls-3" points="92.02 25.02 92.02 0.34 116.71 0.34 92.02 25.02"/><polygon class="cls-4" points="55.35 25.02 55.35 0.34 80.05 0.34 55.35 25.02"/><polygon class="cls-5" points="55.35 61.01 55.35 36.21 80.16 36.21 55.35 61.01"/><polygon class="cls-6" points="55.35 97.39 55.35 72.58 80.16 72.58 55.35 97.39"/><polygon class="cls-7" points="92.02 61.01 92.02 36.21 116.83 36.21 92.02 61.01"/><path class="cls-1" d="M184.5,15.59a1.86,1.86,0,0,0-2,.39L70.9,125.39a1.87,1.87,0,1,0,2.62,2.67L181.91,21.77v60.9h-41.6a1.87,1.87,0,0,0,0,3.74h41.6v40.36a1.87,1.87,0,1,0,3.74,0V17.32A1.86,1.86,0,0,0,184.5,15.59Z" transform="translate(-14.76 -15.04)"/><path class="cls-1" d="M289.88,17.32a1.87,1.87,0,1,0-3.74,0V126.77h0a1.87,1.87,0,0,0,3.74,0Z" transform="translate(-14.76 -15.04)"/><path class="cls-1" d="M238.25,66.9c-24.95-6.34-30.86-13.13-30.86-25.82,0-11.16,8.1-22.1,29.11-22.1,22.32,0,30.2,13.56,31.95,25.6h0l.25,1.78a2.17,2.17,0,0,0,4.29-.61s-.57-3.91-.57-3.92C269.67,26.73,257.77,15,236.72,15,213.52,15,203,27.73,203,41.52c0,14,6.13,21.88,33.49,29.1,28,7.44,33.7,15.32,33.7,29.33,0,13.79-10.51,25.17-32.61,25.17-21.45,0-32.17-9.2-35.89-27.58l-.39-2.8a2.17,2.17,0,1,0-4.29.61l.33,2.33c3.1,19.18,14.7,31.37,40.24,31.37,22.54,0,37.2-11.37,37.2-29.54C274.79,83.53,266.7,74.12,238.25,66.9Z" transform="translate(-14.76 -15.04)"/><path class="cls-1" d="M302.91,15a5.66,5.66,0,1,1-5.71,5.63A5.62,5.62,0,0,1,302.91,15Zm0,10.48a4.67,4.67,0,0,0,4.64-4.85,4.66,4.66,0,1,0-9.32,0A4.68,4.68,0,0,0,302.91,25.52Zm-2.21-8.14h2.56c1.57,0,2.31.62,2.31,1.89a1.7,1.7,0,0,1-1.74,1.8L305.72,24h-1.1l-1.8-2.84h-1.09V24h-1Zm1,2.94h1.07c.91,0,1.74-.05,1.74-1.09,0-.88-.75-1-1.45-1h-1.36Z" transform="translate(-14.76 -15.04)"/><path class="cls-1" d="M14.94,277.28h.28a.15.15,0,0,1,.17.17V289.1a.16.16,0,0,1-.17.17h-.28a.17.17,0,0,1-.18-.17V277.45A.16.16,0,0,1,14.94,277.28Z" transform="translate(-14.76 -15.04)"/><path class="cls-1" d="M26.76,277.28h.29a.15.15,0,0,1,.17.17V289.1a.15.15,0,0,1-.17.17h-.27a.21.21,0,0,1-.2-.12l-6.33-10.64V289.1a.15.15,0,0,1-.17.17H19.8c-.12,0-.18-.06-.18-.17V277.45c0-.11.06-.17.18-.17h.26a.23.23,0,0,1,.21.11L26.59,288V277.45A.15.15,0,0,1,26.76,277.28Z" transform="translate(-14.76 -15.04)"/><path class="cls-1" d="M38,277.45v.24a.15.15,0,0,1-.17.17H34.45V289.1a.16.16,0,0,1-.17.17H34a.16.16,0,0,1-.17-.17V277.86H30.48a.15.15,0,0,1-.17-.17v-.24a.15.15,0,0,1,.17-.17h7.31A.15.15,0,0,1,38,277.45Z" transform="translate(-14.76 -15.04)"/><path class="cls-1" d="M47.56,288.86v.24a.16.16,0,0,1-.17.17H41.23a.17.17,0,0,1-.18-.17V277.45a.16.16,0,0,1,.18-.17h6.08a.16.16,0,0,1,.17.17v.24a.16.16,0,0,1-.17.17H41.68v5.07h5.2a.15.15,0,0,1,.17.17v.24a.15.15,0,0,1-.17.17h-5.2v5.18h5.71A.15.15,0,0,1,47.56,288.86Z" transform="translate(-14.76 -15.04)"/><path class="cls-1" d="M59.73,289.27h-.36a.25.25,0,0,1-.21-.1l-4.35-4.93H51.62v4.86a.16.16,0,0,1-.17.17h-.28a.17.17,0,0,1-.18-.17V277.45a.16.16,0,0,1,.18-.17h3.76a3.48,3.48,0,0,1,.6,6.91l4.3,4.86C59.93,289.17,59.88,289.27,59.73,289.27Zm-8.11-5.61h3.31a2.9,2.9,0,0,0,0-5.8H51.62Z" transform="translate(-14.76 -15.04)"/><path class="cls-1" d="M62.88,277.28h.28a.15.15,0,0,1,.17.17V289.1a.16.16,0,0,1-.17.17h-.28a.17.17,0,0,1-.18-.17V277.45A.16.16,0,0,1,62.88,277.28Z" transform="translate(-14.76 -15.04)"/><path class="cls-1" d="M66.88,283.27a6.18,6.18,0,1,1,6.18,6.18A6.16,6.16,0,0,1,66.88,283.27Zm11.73,0a5.55,5.55,0,1,0-5.55,5.59A5.54,5.54,0,0,0,78.61,283.27Z" transform="translate(-14.76 -15.04)"/><path class="cls-1" d="M91.52,289.27h-.37a.25.25,0,0,1-.21-.1l-4.35-4.93H83.4v4.86a.16.16,0,0,1-.17.17H83a.17.17,0,0,1-.18-.17V277.45a.16.16,0,0,1,.18-.17h3.77a3.48,3.48,0,0,1,.59,6.91l4.3,4.86C91.71,289.17,91.66,289.27,91.52,289.27Zm-8.12-5.61h3.32a2.9,2.9,0,0,0,0-5.8H83.4Z" transform="translate(-14.76 -15.04)"/><path class="cls-1" d="M106.79,277.45v.24a.15.15,0,0,1-.17.17H101v5.52h5.48a.15.15,0,0,1,.17.17v.24a.16.16,0,0,1-.17.17H101v5.14a.16.16,0,0,1-.17.17h-.29a.16.16,0,0,1-.17-.17V277.45a.15.15,0,0,1,.17-.17h6.08A.15.15,0,0,1,106.79,277.45Z" transform="translate(-14.76 -15.04)"/><path class="cls-1" d="M110.28,277.28h.28a.15.15,0,0,1,.17.17V289.1a.16.16,0,0,1-.17.17h-.28a.16.16,0,0,1-.17-.17V277.45A.15.15,0,0,1,110.28,277.28Z" transform="translate(-14.76 -15.04)"/><path class="cls-1" d="M122.11,277.28h.28a.15.15,0,0,1,.17.17V289.1a.15.15,0,0,1-.17.17h-.26a.21.21,0,0,1-.2-.12l-6.33-10.64V289.1a.15.15,0,0,1-.17.17h-.29a.15.15,0,0,1-.17-.17V277.45a.15.15,0,0,1,.17-.17h.26a.22.22,0,0,1,.21.11L121.94,288V277.45A.15.15,0,0,1,122.11,277.28Z" transform="translate(-14.76 -15.04)"/><path class="cls-1" d="M127,277.28h.28a.15.15,0,0,1,.17.17V289.1a.16.16,0,0,1-.17.17H127a.16.16,0,0,1-.17-.17V277.45A.15.15,0,0,1,127,277.28Z" transform="translate(-14.76 -15.04)"/><path class="cls-1" d="M130.86,286.29c0-.12.06-.18.17-.18h.29a.16.16,0,0,1,.17.17c.09,1.56,1.37,2.58,3.48,2.58,1.87,0,3.08-1.05,3.08-2.49,0-1.71-1.53-2.25-3.13-2.85-1.81-.68-3.74-1.23-3.74-3.44,0-1.76,1.54-3,3.54-3a3.35,3.35,0,0,1,3.59,3,.15.15,0,0,1-.17.17h-.29a.16.16,0,0,1-.17-.16,2.72,2.72,0,0,0-3-2.38c-1.81,0-2.91,1.08-2.91,2.39,0,1.72,1.56,2.23,3.2,2.85,1.79.69,3.67,1.3,3.67,3.44,0,1.88-1.65,3.08-3.71,3.08C132.67,289.45,131,288.29,130.86,286.29Z" transform="translate(-14.76 -15.04)"/><path class="cls-1" d="M149.82,277.45V289.1a.16.16,0,0,1-.17.17h-.29a.16.16,0,0,1-.17-.17v-5.71h-6.45v5.71a.16.16,0,0,1-.17.17h-.29a.16.16,0,0,1-.17-.17V277.45a.15.15,0,0,1,.17-.17h.29a.15.15,0,0,1,.17.17v5.36h6.45v-5.36a.15.15,0,0,1,.17-.17h.29A.15.15,0,0,1,149.82,277.45Z" transform="translate(-14.76 -15.04)"/><path class="cls-1" d="M160.57,288.86v.24a.16.16,0,0,1-.17.17h-6.17a.16.16,0,0,1-.17-.17V277.45a.15.15,0,0,1,.17-.17h6.08a.15.15,0,0,1,.17.17v.24a.15.15,0,0,1-.17.17h-5.62v5.07h5.19a.15.15,0,0,1,.17.17v.24a.15.15,0,0,1-.17.17h-5.19v5.18h5.71A.16.16,0,0,1,160.57,288.86Z" transform="translate(-14.76 -15.04)"/><path class="cls-1" d="M163.21,286.29a.15.15,0,0,1,.16-.18h.29a.16.16,0,0,1,.17.17c.09,1.56,1.37,2.58,3.49,2.58,1.86,0,3.08-1.05,3.08-2.49,0-1.71-1.54-2.25-3.14-2.85-1.8-.68-3.74-1.23-3.74-3.44,0-1.76,1.54-3,3.55-3a3.34,3.34,0,0,1,3.58,3,.14.14,0,0,1-.16.17h-.3a.16.16,0,0,1-.17-.16,2.71,2.71,0,0,0-3-2.38c-1.82,0-2.92,1.08-2.92,2.39,0,1.72,1.56,2.23,3.21,2.85s3.66,1.3,3.66,3.44c0,1.88-1.65,3.08-3.7,3.08C165,289.45,163.3,288.29,163.21,286.29Z" transform="translate(-14.76 -15.04)"/><path class="cls-1" d="M179.67,290.86V275.15c0-.06.12-.1.38-.1s.37,0,.37.1v15.71c0,.07-.12.1-.37.1S179.67,290.93,179.67,290.86Z" transform="translate(-14.76 -15.04)"/><path class="cls-1" d="M196.38,288.86v.24a.16.16,0,0,1-.17.17h-6.16a.17.17,0,0,1-.18-.17V277.45a.16.16,0,0,1,.18-.17h6.08a.16.16,0,0,1,.17.17v.24a.16.16,0,0,1-.17.17H190.5v5.07h5.2a.15.15,0,0,1,.17.17v.24a.15.15,0,0,1-.17.17h-5.2v5.18h5.71A.15.15,0,0,1,196.38,288.86Z" transform="translate(-14.76 -15.04)"/><path class="cls-1" d="M199,286.29c0-.12.06-.18.17-.18h.29a.16.16,0,0,1,.17.17c.09,1.56,1.37,2.58,3.49,2.58,1.86,0,3.07-1.05,3.07-2.49,0-1.71-1.53-2.25-3.13-2.85-1.81-.68-3.74-1.23-3.74-3.44,0-1.76,1.54-3,3.54-3a3.35,3.35,0,0,1,3.59,3,.15.15,0,0,1-.17.17H206a.16.16,0,0,1-.17-.16,2.72,2.72,0,0,0-3-2.38c-1.81,0-2.91,1.08-2.91,2.39,0,1.72,1.56,2.23,3.21,2.85s3.66,1.3,3.66,3.44c0,1.88-1.65,3.08-3.7,3.08C200.83,289.45,199.11,288.29,199,286.29Z" transform="translate(-14.76 -15.04)"/><path class="cls-1" d="M216.44,277.45v.24a.15.15,0,0,1-.17.17h-3.34V289.1a.16.16,0,0,1-.17.17h-.29a.16.16,0,0,1-.17-.17V277.86H209a.15.15,0,0,1-.17-.17v-.24a.15.15,0,0,1,.17-.17h7.31A.15.15,0,0,1,216.44,277.45Z" transform="translate(-14.76 -15.04)"/><path class="cls-1" d="M227.29,289.27H227a.2.2,0,0,1-.2-.14l-1.18-3h-6.3l-1.18,3a.19.19,0,0,1-.19.14h-.3c-.14,0-.19-.08-.14-.2l4.57-11.66a.2.2,0,0,1,.19-.13h.4a.21.21,0,0,1,.2.13l4.57,11.66C227.47,289.19,227.42,289.27,227.29,289.27Zm-1.91-3.75L222.46,278l-2.92,7.51Z" transform="translate(-14.76 -15.04)"/><path class="cls-1" d="M239.91,285.33a3.82,3.82,0,0,1-3.79,3.94h-5.46a.17.17,0,0,1-.18-.17V277.45a.16.16,0,0,1,.18-.17h4.39a2.69,2.69,0,0,1,2.31,4.31A3.86,3.86,0,0,1,239.91,285.33Zm-8.8-7.47v3.53h5a3.43,3.43,0,0,1,.56,0,2.08,2.08,0,0,0,.58-1.46,2.1,2.1,0,0,0-2.23-2.11Zm8.17,7.47a3.21,3.21,0,0,0-3.2-3.36h-5v6.72h4.95A3.23,3.23,0,0,0,239.28,285.33Z" transform="translate(-14.76 -15.04)"/><path class="cls-1" d="M249.65,288.86v.24a.16.16,0,0,1-.17.17h-6.11a.16.16,0,0,1-.17-.17V277.45a.15.15,0,0,1,.17-.17h.29a.16.16,0,0,1,.17.17v11.24h5.65A.15.15,0,0,1,249.65,288.86Z" transform="translate(-14.76 -15.04)"/><path class="cls-1" d="M252.92,277.28h.29a.16.16,0,0,1,.17.17V289.1a.16.16,0,0,1-.17.17h-.29a.16.16,0,0,1-.17-.17V277.45A.15.15,0,0,1,252.92,277.28Z" transform="translate(-14.76 -15.04)"/><path class="cls-1" d="M256.82,286.29a.15.15,0,0,1,.16-.18h.3a.16.16,0,0,1,.17.17c.09,1.56,1.37,2.58,3.48,2.58,1.86,0,3.08-1.05,3.08-2.49,0-1.71-1.53-2.25-3.14-2.85-1.8-.68-3.74-1.23-3.74-3.44,0-1.76,1.54-3,3.55-3a3.35,3.35,0,0,1,3.59,3,.15.15,0,0,1-.17.17h-.29a.15.15,0,0,1-.17-.16,2.72,2.72,0,0,0-3-2.38c-1.81,0-2.92,1.08-2.92,2.39,0,1.72,1.57,2.23,3.21,2.85s3.67,1.3,3.67,3.44c0,1.88-1.65,3.08-3.71,3.08C258.62,289.45,256.91,288.29,256.82,286.29Z" transform="translate(-14.76 -15.04)"/><path class="cls-1" d="M275.78,277.45V289.1a.17.17,0,0,1-.18.17h-.28a.16.16,0,0,1-.17-.17v-5.71H268.7v5.71a.17.17,0,0,1-.18.17h-.28a.16.16,0,0,1-.17-.17V277.45a.15.15,0,0,1,.17-.17h.28a.16.16,0,0,1,.18.17v5.36h6.45v-5.36a.15.15,0,0,1,.17-.17h.28A.16.16,0,0,1,275.78,277.45Z" transform="translate(-14.76 -15.04)"/><path class="cls-1" d="M286.52,288.86v.24a.16.16,0,0,1-.17.17h-6.17a.16.16,0,0,1-.17-.17V277.45a.15.15,0,0,1,.17-.17h6.08a.15.15,0,0,1,.17.17v.24a.15.15,0,0,1-.17.17h-5.62v5.07h5.2a.16.16,0,0,1,.17.17v.24a.16.16,0,0,1-.17.17h-5.2v5.18h5.71A.15.15,0,0,1,286.52,288.86Z" transform="translate(-14.76 -15.04)"/><path class="cls-1" d="M300.35,283.27a5.72,5.72,0,0,1-5.66,6h-4.56a.17.17,0,0,1-.18-.17V277.45a.16.16,0,0,1,.18-.17h4.56A5.72,5.72,0,0,1,300.35,283.27Zm-.62,0a5.12,5.12,0,0,0-5-5.41h-4.11v10.83h4.11A5.12,5.12,0,0,0,299.73,283.27Z" transform="translate(-14.76 -15.04)"/><path class="cls-1" d="M311.38,277.33a.41.41,0,0,1,.21-.05h.35a.15.15,0,0,1,.17.17V289.1a.15.15,0,0,1-.17.17h-.29a.15.15,0,0,1-.17-.17V278l-2.79,1.49c-.12.07-.21,0-.21-.12V279a.21.21,0,0,1,.12-.2l2.78-1.49Z" transform="translate(-14.76 -15.04)"/><path class="cls-1" d="M322.68,283.43l-4,5.73a.25.25,0,0,1-.21.11h-.32c-.14,0-.19-.1-.11-.21l3.09-4.4a4.54,4.54,0,0,1-1.72.33,4,4,0,1,1,4-3.95A4,4,0,0,1,322.68,283.43Zm-3.28,1A3.35,3.35,0,1,0,316,281,3.2,3.2,0,0,0,319.4,284.39Z" transform="translate(-14.76 -15.04)"/><path class="cls-1" d="M333,283.43l-4,5.73a.23.23,0,0,1-.2.11h-.32c-.14,0-.19-.1-.11-.21l3.08-4.4a4.49,4.49,0,0,1-1.71.33,4,4,0,1,1,4-3.95A4,4,0,0,1,333,283.43Zm-3.28,1a3.35,3.35,0,1,0-3.4-3.35A3.2,3.2,0,0,0,329.74,284.39Z" transform="translate(-14.76 -15.04)"/><path class="cls-1" d="M336.38,283.27c0-3.7,1.62-6.18,4.43-6.18s4.43,2.48,4.43,6.18-1.61,6.18-4.43,6.18S336.38,287,336.38,283.27Zm8.23,0c0-3.5-1.45-5.58-3.8-5.58s-3.8,2.08-3.8,5.58,1.45,5.59,3.8,5.59S344.61,286.77,344.61,283.27Z" transform="translate(-14.76 -15.04)"/></svg>